<svg xmlns="http://www.w3.org/2000/svg" viewBox="0 0 64 64" fill="none">
  <rect width="64" height="64" rx="16" fill="#238d4b"/>
  <path
    d="M12 36.5c0-1.1.9-2 2-2h3.2l2.8-7.5c.5-1.3 1.7-2.2 3.1-2.2h17.8c1.4 0 2.6.9 3.1 2.2l2.8 7.5H50c1.1 0 2 .9 2 2v5.5c0 1.1-.9 2-2 2h-2.1a5.4 5.4 0 0 1-10.8 0H28.9a5.4 5.4 0 0 1-10.8 0H16c-1.1 0-2-.9-2-2V36.5Z"
    fill="#fff"
  />
  <circle cx="23.5" cy="39" r="3.2" fill="#0f7a3d"/>
  <circle cx="40.5" cy="39" r="3.2" fill="#0f7a3d"/>
  <path d="M20.5 27h23l-2.2-5.8H22.7L20.5 27Z" fill="#d7efe0"/>
</svg>
